<svg width="22" height="21" viewBox="0 0 22 21" fill="none" xmlns="http://www.w3.org/2000/svg">
<path d="M17.5314 15.6074C18.3924 16.3472 18.4976 17.6618 17.598 18.3547C16.7331 19.0208 15.7636 19.5482 14.724 19.9135C13.034 20.5074 11.2174 20.6521 9.4539 20.3333C7.69041 20.0144 6.04107 19.2431 4.66893 18.0955C3.29679 16.9479 2.24935 15.4639 1.63016 13.79C1.01097 12.1161 0.841473 10.3104 1.13842 8.55139C1.43537 6.79235 2.18848 5.1409 3.32331 3.76027C4.45813 2.37965 5.93538 1.31766 7.60901 0.679287C8.63841 0.286646 9.72018 0.0626265 10.8126 0.0116591C11.949 -0.0413548 12.7254 1.02737 12.5519 2.14619C12.3783 3.26501 11.3067 3.99668 10.1875 4.19955C9.81214 4.2676 9.44244 4.37036 9.08336 4.50732C8.07918 4.89035 7.19283 5.52754 6.51194 6.35591C5.83104 7.18429 5.37918 8.17516 5.20101 9.23058C5.02284 10.286 5.12454 11.3694 5.49605 12.3737C5.86756 13.3781 6.49603 14.2685 7.31931 14.9571C8.1426 15.6456 9.1322 16.1084 10.1903 16.2997C11.2484 16.491 12.3383 16.4042 13.3524 16.0479C13.715 15.9204 14.0634 15.7601 14.3935 15.5697C15.3777 15.002 16.6703 14.8676 17.5314 15.6074Z" fill="url(#paint0_linear_269_12678)"/>
<path d="M9.16141 2.32917C8.86699 1.23568 9.5224 0.089476 10.6578 0.0195635C11.5833 -0.0374274 12.5156 0.0300464 13.4289 0.222658C15.0167 0.55752 16.5026 1.26113 17.7652 2.27611C19.0279 3.29108 20.0316 4.58868 20.6945 6.06309C21.3574 7.53749 21.6608 9.14695 21.5798 10.7602C21.4988 12.3735 21.0359 13.9448 20.2286 15.3462C19.4214 16.7475 18.2927 17.9391 16.9347 18.8238C15.5767 19.7086 14.0279 20.2613 12.4144 20.4371C11.4863 20.5382 10.552 20.5129 9.63674 20.3644C8.51399 20.1822 7.9766 18.9767 8.37905 17.9179C8.7815 16.859 9.98205 16.3639 11.1192 16.3959C11.4011 16.4038 11.6841 16.3925 11.9662 16.3618C12.9342 16.2564 13.8636 15.9247 14.6784 15.3939C15.4932 14.8631 16.1704 14.1481 16.6547 13.3073C17.139 12.4665 17.4168 11.5237 17.4654 10.5557C17.514 9.58776 17.332 8.62208 16.9342 7.73744C16.5365 6.8528 15.9343 6.07423 15.1767 5.46525C14.4191 4.85626 13.5276 4.4341 12.5749 4.23318C12.2973 4.17465 12.0169 4.13538 11.7355 4.11531C10.6008 4.0344 9.45584 3.42267 9.16141 2.32917Z" fill="url(#paint1_linear_269_12678)"/>
<path d="M3.38812 7.94563C2.29636 7.6276 1.65302 6.47466 2.18312 5.47301C2.5079 4.85933 2.89527 4.27848 3.34016 3.73999C4.22257 2.67192 5.31303 1.79259 6.5459 1.15493C7.77876 0.517264 9.12854 0.134455 10.514 0.0295437C11.2125 -0.0233497 11.9128 -0.00505219 12.6041 0.0830851C13.7324 0.22694 14.3109 1.41344 13.945 2.48537C13.5792 3.5573 12.3964 4.09299 11.2588 4.09969C11.1148 4.10054 10.9706 4.1064 10.8265 4.11731C9.99527 4.18026 9.18541 4.40994 8.44569 4.79254C7.70597 5.17514 7.05169 5.70274 6.52225 6.34358C6.43049 6.45463 6.34282 6.56869 6.25935 6.68552C5.60014 7.60814 4.47989 8.26365 3.38812 7.94563Z" fill="#44EAF4"/>
<path d="M3.38812 7.94563C2.29636 7.6276 1.65302 6.47466 2.18312 5.47301C2.5079 4.85933 2.89527 4.27848 3.34016 3.73999C4.22257 2.67192 5.31303 1.79259 6.5459 1.15493C7.77876 0.517264 9.12854 0.134455 10.514 0.0295437C11.2125 -0.0233497 11.9128 -0.00505219 12.6041 0.0830851C13.7324 0.22694 14.3109 1.41344 13.945 2.48537C13.5792 3.5573 12.3964 4.09299 11.2588 4.09969C11.1148 4.10054 10.9706 4.1064 10.8265 4.11731C9.99527 4.18026 9.18541 4.40994 8.44569 4.79254C7.70597 5.17514 7.05169 5.70274 6.52225 6.34358C6.43049 6.45463 6.34282 6.56869 6.25935 6.68552C5.60014 7.60814 4.47989 8.26365 3.38812 7.94563Z" fill="url(#paint2_linear_269_12678)"/>
<path d="M3.38812 7.94563C2.29636 7.6276 1.65302 6.47466 2.18312 5.47301C2.5079 4.85933 2.89527 4.27848 3.34016 3.73999C4.22257 2.67192 5.31303 1.79259 6.5459 1.15493C7.77876 0.517264 9.12854 0.134455 10.514 0.0295437C11.2125 -0.0233497 11.9128 -0.00505219 12.6041 0.0830851C13.7324 0.22694 14.3109 1.41344 13.945 2.48537C13.5792 3.5573 12.3964 4.09299 11.2588 4.09969C11.1148 4.10054 10.9706 4.1064 10.8265 4.11731C9.99527 4.18026 9.18541 4.40994 8.44569 4.79254C7.70597 5.17514 7.05169 5.70274 6.52225 6.34358C6.43049 6.45463 6.34282 6.56869 6.25935 6.68552C5.60014 7.60814 4.47989 8.26365 3.38812 7.94563Z" fill="url(#paint3_linear_269_12678)"/>
<path d="M3.38812 7.94563C2.29636 7.6276 1.65302 6.47466 2.18312 5.47301C2.5079 4.85933 2.89527 4.27848 3.34016 3.73999C4.22257 2.67192 5.31303 1.79259 6.5459 1.15493C7.77876 0.517264 9.12854 0.134455 10.514 0.0295437C11.2125 -0.0233497 11.9128 -0.00505219 12.6041 0.0830851C13.7324 0.22694 14.3109 1.41344 13.945 2.48537C13.5792 3.5573 12.3964 4.09299 11.2588 4.09969C11.1148 4.10054 10.9706 4.1064 10.8265 4.11731C9.99527 4.18026 9.18541 4.40994 8.44569 4.79254C7.70597 5.17514 7.05169 5.70274 6.52225 6.34358C6.43049 6.45463 6.34282 6.56869 6.25935 6.68552C5.60014 7.60814 4.47989 8.26365 3.38812 7.94563Z" fill="url(#paint4_linear_269_12678)"/>
<path d="M3.38812 7.94563C2.29636 7.6276 1.65302 6.47466 2.18312 5.47301C2.5079 4.85933 2.89527 4.27848 3.34016 3.73999C4.22257 2.67192 5.31303 1.79259 6.5459 1.15493C7.77876 0.517264 9.12854 0.134455 10.514 0.0295437C11.2125 -0.0233497 11.9128 -0.00505219 12.6041 0.0830851C13.7324 0.22694 14.3109 1.41344 13.945 2.48537C13.5792 3.5573 12.3964 4.09299 11.2588 4.09969C11.1148 4.10054 10.9706 4.1064 10.8265 4.11731C9.99527 4.18026 9.18541 4.40994 8.44569 4.79254C7.70597 5.17514 7.05169 5.70274 6.52225 6.34358C6.43049 6.45463 6.34282 6.56869 6.25935 6.68552C5.60014 7.60814 4.47989 8.26365 3.38812 7.94563Z" fill="url(#paint5_linear_269_12678)"/>
<defs>
<linearGradient id="paint0_linear_269_12678" x1="6.11244" y1="1.02079" x2="10.9198" y2="20.9588" gradientUnits="userSpaceOnUse">
<stop stop-color="#DD111E"/>
<stop offset="1" stop-color="#C5466C"/>
</linearGradient>
<linearGradient id="paint1_linear_269_12678" x1="12.3727" y1="0.181707" x2="16.1679" y2="18.4711" gradientUnits="userSpaceOnUse">
<stop stop-color="#256EA3"/>
<stop offset="1" stop-color="#25D2F8"/>
</linearGradient>
<linearGradient id="paint2_linear_269_12678" x1="6.11292" y1="1.02037" x2="10.9203" y2="20.9584" gradientUnits="userSpaceOnUse">
<stop stop-color="#5F3E4F"/>
<stop offset="1" stop-color="#A8111A"/>
</linearGradient>
<linearGradient id="paint3_linear_269_12678" x1="6.11292" y1="1.02037" x2="10.9203" y2="20.9584" gradientUnits="userSpaceOnUse">
<stop stop-color="#A8111A"/>
<stop offset="1" stop-color="#5F3E4F"/>
</linearGradient>
<linearGradient id="paint4_linear_269_12678" x1="6.11292" y1="1.02037" x2="10.9203" y2="20.9584" gradientUnits="userSpaceOnUse">
<stop stop-color="#A8111A"/>
<stop offset="1" stop-color="#C5466C"/>
</linearGradient>
<linearGradient id="paint5_linear_269_12678" x1="6.11292" y1="1.02037" x2="10.9203" y2="20.9584" gradientUnits="userSpaceOnUse">
<stop stop-color="#DD111E"/>
<stop offset="1" stop-color="#C5466C"/>
</linearGradient>
</defs>
</svg>
