<svg width="21" height="21" viewBox="0 0 21 21" fill="none" xmlns="http://www.w3.org/2000/svg">
<path d="M8.16141 2.32917C7.86699 1.23568 8.5224 0.089476 9.6578 0.0195635C10.5833 -0.0374274 11.5156 0.0300464 12.4289 0.222658C14.0167 0.55752 15.5026 1.26113 16.7652 2.27611C18.0279 3.29108 19.0316 4.58868 19.6945 6.06309C20.3574 7.53749 20.6608 9.14695 20.5798 10.7602C20.4988 12.3735 20.0359 13.9448 19.2286 15.3462C18.4214 16.7475 17.2927 17.9391 15.9347 18.8238C14.5767 19.7086 13.0279 20.2613 11.4144 20.4371C10.4863 20.5382 9.55198 20.5129 8.63674 20.3644C7.51399 20.1822 6.9766 18.9767 7.37905 17.9179C7.7815 16.859 8.98205 16.3639 10.1192 16.3959C10.4011 16.4038 10.6841 16.3925 10.9662 16.3618C11.9342 16.2564 12.8636 15.9247 13.6784 15.3939C14.4932 14.8631 15.1704 14.1481 15.6547 13.3073C16.139 12.4665 16.4168 11.5237 16.4654 10.5557C16.514 9.58776 16.332 8.62208 15.9342 7.73744C15.5365 6.8528 14.9343 6.07423 14.1767 5.46525C13.4191 4.85626 12.5276 4.4341 11.5749 4.23318C11.2973 4.17465 11.0169 4.13538 10.7355 4.11531C9.60083 4.0344 8.45584 3.42267 8.16141 2.32917Z" fill="url(#paint0_linear_269_12680)"/>
<path d="M2.38812 7.94563C1.29636 7.6276 0.65302 6.47466 1.18312 5.47301C1.5079 4.85933 1.89527 4.27848 2.34016 3.73999C3.22257 2.67192 4.31303 1.79259 5.5459 1.15493C6.77876 0.517264 8.12854 0.134455 9.51397 0.0295437C10.2125 -0.0233497 10.9128 -0.00505219 11.6041 0.0830851C12.7324 0.22694 13.3109 1.41344 12.945 2.48537C12.5792 3.5573 11.3964 4.09299 10.2588 4.09969C10.1148 4.10054 9.97059 4.1064 9.82653 4.11731C8.99527 4.18026 8.18541 4.40994 7.44569 4.79254C6.70597 5.17514 6.05169 5.70274 5.52225 6.34358C5.43049 6.45463 5.34282 6.56869 5.25935 6.68552C4.60014 7.60814 3.47989 8.26365 2.38812 7.94563Z" fill="#44EAF4"/>
<path d="M2.38812 7.94563C1.29636 7.6276 0.65302 6.47466 1.18312 5.47301C1.5079 4.85933 1.89527 4.27848 2.34016 3.73999C3.22257 2.67192 4.31303 1.79259 5.5459 1.15493C6.77876 0.517264 8.12854 0.134455 9.51397 0.0295437C10.2125 -0.0233497 10.9128 -0.00505219 11.6041 0.0830851C12.7324 0.22694 13.3109 1.41344 12.945 2.48537C12.5792 3.5573 11.3964 4.09299 10.2588 4.09969C10.1148 4.10054 9.97059 4.1064 9.82653 4.11731C8.99527 4.18026 8.18541 4.40994 7.44569 4.79254C6.70597 5.17514 6.05169 5.70274 5.52225 6.34358C5.43049 6.45463 5.34282 6.56869 5.25935 6.68552C4.60014 7.60814 3.47989 8.26365 2.38812 7.94563Z" fill="url(#paint1_linear_269_12680)"/>
<path d="M2.38812 7.94563C1.29636 7.6276 0.65302 6.47466 1.18312 5.47301C1.5079 4.85933 1.89527 4.27848 2.34016 3.73999C3.22257 2.67192 4.31303 1.79259 5.5459 1.15493C6.77876 0.517264 8.12854 0.134455 9.51397 0.0295437C10.2125 -0.0233497 10.9128 -0.00505219 11.6041 0.0830851C12.7324 0.22694 13.3109 1.41344 12.945 2.48537C12.5792 3.5573 11.3964 4.09299 10.2588 4.09969C10.1148 4.10054 9.97059 4.1064 9.82653 4.11731C8.99527 4.18026 8.18541 4.40994 7.44569 4.79254C6.70597 5.17514 6.05169 5.70274 5.52225 6.34358C5.43049 6.45463 5.34282 6.56869 5.25935 6.68552C4.60014 7.60814 3.47989 8.26365 2.38812 7.94563Z" fill="url(#paint2_linear_269_12680)"/>
<path d="M2.38812 7.94563C1.29636 7.6276 0.65302 6.47466 1.18312 5.47301C1.5079 4.85933 1.89527 4.27848 2.34016 3.73999C3.22257 2.67192 4.31303 1.79259 5.5459 1.15493C6.77876 0.517264 8.12854 0.134455 9.51397 0.0295437C10.2125 -0.0233497 10.9128 -0.00505219 11.6041 0.0830851C12.7324 0.22694 13.3109 1.41344 12.945 2.48537C12.5792 3.5573 11.3964 4.09299 10.2588 4.09969C10.1148 4.10054 9.97059 4.1064 9.82653 4.11731C8.99527 4.18026 8.18541 4.40994 7.44569 4.79254C6.70597 5.17514 6.05169 5.70274 5.52225 6.34358C5.43049 6.45463 5.34282 6.56869 5.25935 6.68552C4.60014 7.60814 3.47989 8.26365 2.38812 7.94563Z" fill="url(#paint3_linear_269_12680)"/>
<path d="M2.38812 7.94563C1.29636 7.6276 0.65302 6.47466 1.18312 5.47301C1.5079 4.85933 1.89527 4.27848 2.34016 3.73999C3.22257 2.67192 4.31303 1.79259 5.5459 1.15493C6.77876 0.517264 8.12854 0.134455 9.51397 0.0295437C10.2125 -0.0233497 10.9128 -0.00505219 11.6041 0.0830851C12.7324 0.22694 13.3109 1.41344 12.945 2.48537C12.5792 3.5573 11.3964 4.09299 10.2588 4.09969C10.1148 4.10054 9.97059 4.1064 9.82653 4.11731C8.99527 4.18026 8.18541 4.40994 7.44569 4.79254C6.70597 5.17514 6.05169 5.70274 5.52225 6.34358C5.43049 6.45463 5.34282 6.56869 5.25935 6.68552C4.60014 7.60814 3.47989 8.26365 2.38812 7.94563Z" fill="url(#paint4_linear_269_12680)"/>
<defs>
<linearGradient id="paint0_linear_269_12680" x1="11.3727" y1="0.181707" x2="15.1679" y2="18.4711" gradientUnits="userSpaceOnUse">
<stop stop-color="#256EA3"/>
<stop offset="1" stop-color="#25D2F8"/>
</linearGradient>
<linearGradient id="paint1_linear_269_12680" x1="5.11292" y1="1.02037" x2="9.92029" y2="20.9584" gradientUnits="userSpaceOnUse">
<stop stop-color="#5F3E4F"/>
<stop offset="1" stop-color="#A8111A"/>
</linearGradient>
<linearGradient id="paint2_linear_269_12680" x1="5.11292" y1="1.02037" x2="9.92029" y2="20.9584" gradientUnits="userSpaceOnUse">
<stop stop-color="#A8111A"/>
<stop offset="1" stop-color="#5F3E4F"/>
</linearGradient>
<linearGradient id="paint3_linear_269_12680" x1="5.11292" y1="1.02037" x2="9.92029" y2="20.9584" gradientUnits="userSpaceOnUse">
<stop stop-color="#A8111A"/>
<stop offset="1" stop-color="#C5466C"/>
</linearGradient>
<linearGradient id="paint4_linear_269_12680" x1="5.11292" y1="1.02037" x2="9.92029" y2="20.9584" gradientUnits="userSpaceOnUse">
<stop stop-color="#DD111E"/>
<stop offset="1" stop-color="#C5466C"/>
</linearGradient>
</defs>
</svg>
